<mxfile modified="2022-09-20T06:59:01.476Z" host="app.diagrams.net" agent="5.0 (Windows NT 10.0; Win64; x64) AppleWebKit/537.36 (KHTML, like Gecko) Chrome/105.0.0.0 Safari/537.36" etag="cSDjd70k4Ok0dloY_0ZA" version="20.2.8" type="github">
  <diagram id="Ht1M8jgEwFfnCIfOTk4-" name="Page-1">
    <mxGraphModel dx="1422" dy="702" grid="1" gridSize="10" guides="1" tooltips="1" connect="1" arrows="1" fold="1" page="1" pageScale="1" pageWidth="1169" pageHeight="827" math="0" shadow="0">
      <root>
        <mxCell id="0" />
        <mxCell id="1" parent="0" />
        <mxCell id="-QjtrjUzRDEMRZ5MF8oH-47" value="&lt;span style=&quot;background-color: initial;&quot;&gt;Hyperlane&lt;/span&gt;&amp;nbsp;Validator 構成図" style="text;html=1;resizable=0;points=[];autosize=1;align=left;verticalAlign=top;spacingTop=-4;fontSize=30;fontStyle=1" parent="1" vertex="1">
          <mxGeometry x="52.5" y="90" width="400" height="40" as="geometry" />
        </mxCell>
        <mxCell id="-QjtrjUzRDEMRZ5MF8oH-48" value="created by kiyo#8414" style="text;html=1;resizable=0;points=[];autosize=1;align=left;verticalAlign=top;spacingTop=-4;fontSize=16;fontStyle=1" parent="1" vertex="1">
          <mxGeometry x="940" y="114.5" width="180" height="30" as="geometry" />
        </mxCell>
        <mxCell id="SCVMTBWpLvtzJIhz15lM-1" value="" style="line;strokeWidth=2;html=1;fontSize=14;" parent="1" vertex="1">
          <mxGeometry x="52.5" y="139.5" width="1060" height="10" as="geometry" />
        </mxCell>
        <mxCell id="hzZw_iUylQr1iloRfRJn-1" value="" style="sketch=0;points=[[0,0,0],[0.25,0,0],[0.5,0,0],[0.75,0,0],[1,0,0],[0,1,0],[0.25,1,0],[0.5,1,0],[0.75,1,0],[1,1,0],[0,0.25,0],[0,0.5,0],[0,0.75,0],[1,0.25,0],[1,0.5,0],[1,0.75,0]];outlineConnect=0;fontColor=#232F3E;gradientColor=#60A337;gradientDirection=north;fillColor=#277116;strokeColor=#ffffff;dashed=0;verticalLabelPosition=bottom;verticalAlign=top;align=center;html=1;fontSize=12;fontStyle=0;aspect=fixed;shape=mxgraph.aws4.resourceIcon;resIcon=mxgraph.aws4.s3;" parent="1" vertex="1">
          <mxGeometry x="507.5" y="630" width="78" height="78" as="geometry" />
        </mxCell>
        <mxCell id="hzZw_iUylQr1iloRfRJn-2" value="" style="sketch=0;points=[[0,0,0],[0.25,0,0],[0.5,0,0],[0.75,0,0],[1,0,0],[0,1,0],[0.25,1,0],[0.5,1,0],[0.75,1,0],[1,1,0],[0,0.25,0],[0,0.5,0],[0,0.75,0],[1,0.25,0],[1,0.5,0],[1,0.75,0]];outlineConnect=0;fontColor=#232F3E;gradientColor=#F78E04;gradientDirection=north;fillColor=#D05C17;strokeColor=#ffffff;dashed=0;verticalLabelPosition=bottom;verticalAlign=top;align=center;html=1;fontSize=12;fontStyle=0;aspect=fixed;shape=mxgraph.aws4.resourceIcon;resIcon=mxgraph.aws4.compute;" parent="1" vertex="1">
          <mxGeometry x="862.5" y="460" width="78" height="78" as="geometry" />
        </mxCell>
        <mxCell id="hzZw_iUylQr1iloRfRJn-3" value="" style="sketch=0;outlineConnect=0;fontColor=#232F3E;gradientColor=none;fillColor=#D45B07;strokeColor=none;dashed=0;verticalLabelPosition=bottom;verticalAlign=top;align=center;html=1;fontSize=12;fontStyle=0;aspect=fixed;shape=mxgraph.aws4.blockchain_resource;" parent="1" vertex="1">
          <mxGeometry x="79" y="280" width="203.5" height="60" as="geometry" />
        </mxCell>
        <mxCell id="hzZw_iUylQr1iloRfRJn-9" value="" style="edgeStyle=segmentEdgeStyle;endArrow=classic;html=1;rounded=0;strokeWidth=5;entryX=0.75;entryY=0;entryDx=0;entryDy=0;entryPerimeter=0;" parent="1" source="hzZw_iUylQr1iloRfRJn-3" target="hzZw_iUylQr1iloRfRJn-2" edge="1">
          <mxGeometry width="50" height="50" relative="1" as="geometry">
            <mxPoint x="192.5" y="360" as="sourcePoint" />
            <mxPoint x="492.5" y="520" as="targetPoint" />
            <Array as="points">
              <mxPoint x="921.5" y="300" />
            </Array>
          </mxGeometry>
        </mxCell>
        <mxCell id="hzZw_iUylQr1iloRfRJn-10" value="" style="edgeStyle=segmentEdgeStyle;endArrow=classic;html=1;rounded=0;strokeWidth=5;exitX=0.5;exitY=1;exitDx=0;exitDy=0;exitPerimeter=0;entryX=1;entryY=0.5;entryDx=0;entryDy=0;entryPerimeter=0;" parent="1" source="hzZw_iUylQr1iloRfRJn-2" target="hzZw_iUylQr1iloRfRJn-1" edge="1">
          <mxGeometry width="50" height="50" relative="1" as="geometry">
            <mxPoint x="865.5" y="520" as="sourcePoint" />
            <mxPoint x="585.5" y="561" as="targetPoint" />
            <Array as="points">
              <mxPoint x="901.5" y="669" />
            </Array>
          </mxGeometry>
        </mxCell>
        <mxCell id="hzZw_iUylQr1iloRfRJn-14" value="&lt;font style=&quot;font-size: 24px;&quot;&gt;IAM&lt;br&gt;(AWS)&lt;br&gt;&lt;/font&gt;" style="text;html=1;resizable=0;autosize=1;align=center;verticalAlign=middle;points=[];fillColor=none;strokeColor=none;rounded=0;" parent="1" vertex="1">
          <mxGeometry x="516.5" y="523" width="90" height="70" as="geometry" />
        </mxCell>
        <mxCell id="hzZw_iUylQr1iloRfRJn-17" value="&lt;font style=&quot;font-size: 24px;&quot;&gt;S3Bucket&lt;br&gt;&lt;/font&gt;&lt;span style=&quot;font-size: 24px;&quot;&gt;(AWS)&lt;/span&gt;" style="text;html=1;resizable=0;autosize=1;align=center;verticalAlign=middle;points=[];fillColor=none;strokeColor=none;rounded=0;" parent="1" vertex="1">
          <mxGeometry x="481.5" y="703" width="130" height="70" as="geometry" />
        </mxCell>
        <mxCell id="hzZw_iUylQr1iloRfRJn-18" value="&lt;font style=&quot;font-size: 24px;&quot;&gt;KMS&lt;br&gt;(AWS)&lt;br&gt;&lt;/font&gt;" style="text;html=1;resizable=0;autosize=1;align=center;verticalAlign=middle;points=[];fillColor=none;strokeColor=none;rounded=0;" parent="1" vertex="1">
          <mxGeometry x="501.5" y="348" width="90" height="70" as="geometry" />
        </mxCell>
        <mxCell id="hzZw_iUylQr1iloRfRJn-11" value="" style="sketch=0;points=[[0,0,0],[0.25,0,0],[0.5,0,0],[0.75,0,0],[1,0,0],[0,1,0],[0.25,1,0],[0.5,1,0],[0.75,1,0],[1,1,0],[0,0.25,0],[0,0.5,0],[0,0.75,0],[1,0.25,0],[1,0.5,0],[1,0.75,0]];outlineConnect=0;fontColor=#232F3E;gradientColor=#F54749;gradientDirection=north;fillColor=#C7131F;strokeColor=#ffffff;dashed=0;verticalLabelPosition=bottom;verticalAlign=top;align=center;html=1;fontSize=12;fontStyle=0;aspect=fixed;shape=mxgraph.aws4.resourceIcon;resIcon=mxgraph.aws4.identity_and_access_management;" parent="1" vertex="1">
          <mxGeometry x="537.5" y="475" width="48" height="48" as="geometry" />
        </mxCell>
        <mxCell id="hzZw_iUylQr1iloRfRJn-21" value="&lt;font style=&quot;font-size: 24px;&quot;&gt;ブロックチェーン&lt;br&gt;&lt;/font&gt;" style="text;html=1;resizable=0;autosize=1;align=center;verticalAlign=middle;points=[];fillColor=none;strokeColor=none;rounded=0;" parent="1" vertex="1">
          <mxGeometry x="52.5" y="230" width="220" height="40" as="geometry" />
        </mxCell>
        <mxCell id="hzZw_iUylQr1iloRfRJn-22" value="&lt;font style=&quot;font-size: 11px;&quot;&gt;Outbox&lt;br style=&quot;font-size: 11px;&quot;&gt;merkle tree&lt;br style=&quot;font-size: 11px;&quot;&gt;&lt;/font&gt;" style="text;html=1;resizable=0;autosize=1;align=center;verticalAlign=middle;points=[];fillColor=#d5e8d4;strokeColor=#82b366;rounded=0;fontSize=11;" parent="1" vertex="1">
          <mxGeometry x="272.5" y="230" width="80" height="40" as="geometry" />
        </mxCell>
        <mxCell id="hzZw_iUylQr1iloRfRJn-23" value="&lt;font style=&quot;&quot;&gt;Validatorを稼働させるサーバーには、&lt;br&gt;AWS EC2ではなく、&lt;br&gt;VPSを使用することが可能です。&lt;br style=&quot;font-size: 11px;&quot;&gt;&lt;/font&gt;" style="text;html=1;resizable=0;autosize=1;align=left;verticalAlign=middle;points=[];fillColor=#dae8fc;strokeColor=#6c8ebf;rounded=1;fontSize=11;strokeWidth=1;perimeterSpacing=0;" parent="1" vertex="1">
          <mxGeometry x="950.5" y="550" width="210" height="50" as="geometry" />
        </mxCell>
        <mxCell id="hzZw_iUylQr1iloRfRJn-24" value="&lt;span data-key=&quot;0190c54d513c48a1ad92b8de0b8d1fcf&quot;&gt;&lt;font face=&quot;monospace&quot;&gt;Outbox&lt;/font&gt;&lt;/span&gt;&lt;span data-slate-fragment=&quot;JTdCJTIyb2JqZWN0JTIyJTNBJTIyZG9jdW1lbnQlMjIlMkMlMjJkYXRhJTIyJTNBJTdCJTdEJTJDJTIybm9kZXMlMjIlM0ElNUIlN0IlMjJvYmplY3QlMjIlM0ElMjJibG9jayUyMiUyQyUyMnR5cGUlMjIlM0ElMjJwYXJhZ3JhcGglMjIlMkMlMjJpc1ZvaWQlMjIlM0FmYWxzZSUyQyUyMmRhdGElMjIlM0ElN0IlN0QlMkMlMjJub2RlcyUyMiUzQSU1QiU3QiUyMm9iamVjdCUyMiUzQSUyMnRleHQlMjIlMkMlMjJsZWF2ZXMlMjIlM0ElNUIlN0IlMjJvYmplY3QlMjIlM0ElMjJsZWFmJTIyJTJDJTIydGV4dCUyMiUzQSUyMnNpZ24lMjAlMjIlMkMlMjJtYXJrcyUyMiUzQSU1QiU1RCUyQyUyMnNlbGVjdGlvbnMlMjIlM0ElNUIlNUQlN0QlNUQlMkMlMjJrZXklMjIlM0ElMjI1ZWIyMzZkMDNiMzc0M2ViOTk1MTk3ZTczMDA4MzViZiUyMiU3RCUyQyU3QiUyMm9iamVjdCUyMiUzQSUyMmlubGluZSUyMiUyQyUyMnR5cGUlMjIlM0ElMjJsaW5rJTIyJTJDJTIyaXNWb2lkJTIyJTNBZmFsc2UlMkMlMjJkYXRhJTIyJTNBJTdCJTIycmVmJTIyJTNBJTdCJTIya2luZCUyMiUzQSUyMnBhZ2UlMjIlMkMlMjJwYWdlJTIyJTNBJTIyd2pzUHpJRlFxM1JqVHk1bWhtcWUlMjIlN0QlN0QlMkMlMjJub2RlcyUyMiUzQSU1QiU3QiUyMm9iamVjdCUyMiUzQSUyMnRleHQlMjIlMkMlMjJsZWF2ZXMlMjIlM0ElNUIlN0IlMjJvYmplY3QlMjIlM0ElMjJsZWFmJTIyJTJDJTIydGV4dCUyMiUzQSUyMk91dGJveCUyMiUyQyUyMm1hcmtzJTIyJTNBJTVCJTdCJTIyb2JqZWN0JTIyJTNBJTIybWFyayUyMiUyQyUyMnR5cGUlMjIlM0ElMjJjb2RlJTIyJTJDJTIyZGF0YSUyMiUzQSU3QiU3RCU3RCU1RCUyQyUyMnNlbGVjdGlvbnMlMjIlM0ElNUIlNUQlN0QlNUQlMkMlMjJrZXklMjIlM0ElMjJlODVlYjJiNGIwMmE0Zjg3YjZkMjM2MzRlODJkZjk2OCUyMiU3RCU1RCUyQyUyMmtleSUyMiUzQSUyMjY5NzhmNDZhNDhiZjRlMWE5YTk3MGM3MDM4ZTk3N2MzJTIyJTdEJTJDJTdCJTIyb2JqZWN0JTIyJTNBJTIydGV4dCUyMiUyQyUyMmxlYXZlcyUyMiUzQSU1QiU3QiUyMm9iamVjdCUyMiUzQSUyMmxlYWYlMjIlMkMlMjJ0ZXh0JTIyJTNBJTIyJTIwbWVya2xlJTIwcm9vdHMuJTIyJTJDJTIybWFya3MlMjIlM0ElNUIlNUQlMkMlMjJzZWxlY3Rpb25zJTIyJTNBJTVCJTVEJTdEJTVEJTJDJTIya2V5JTIyJTNBJTIyMGFmN2ZmZTI4NjQzNGM1ZjkwMmU3YWI1M2M3YWNjNjklMjIlN0QlNUQlMkMlMjJrZXklMjIlM0ElMjJjZjczYTRiY2E5MGE0NTk3YWZkOTJmNWY5NmFlOTBjZCUyMiU3RCU1RCUyQyUyMmtleSUyMiUzQSUyMjQ5MjUyMWExYzAyNzRlMmNhYzkwN2Q3ZTdjOWY5NmZhJTIyJTdE&quot; data-key=&quot;0af7ffe286434c5f902e7ab53c7acc69&quot;&gt;&amp;nbsp;merkle rootsに署名&lt;br&gt;&lt;/span&gt;" style="text;html=1;resizable=0;autosize=1;align=center;verticalAlign=middle;points=[];fillColor=#dae8fc;strokeColor=#6c8ebf;rounded=1;glass=0;sketch=0;arcSize=31;fontSize=11;" parent="1" vertex="1">
          <mxGeometry x="307.5" y="330" width="160" height="30" as="geometry" />
        </mxCell>
        <mxCell id="hzZw_iUylQr1iloRfRJn-25" value="&lt;font style=&quot;font-size: 11px;&quot;&gt;署名結果を取得&lt;br style=&quot;font-size: 11px;&quot;&gt;&lt;/font&gt;" style="text;html=1;resizable=0;autosize=1;align=center;verticalAlign=middle;points=[];fillColor=#dae8fc;strokeColor=#6c8ebf;rounded=1;fontSize=11;strokeWidth=1;perimeterSpacing=0;" parent="1" vertex="1">
          <mxGeometry x="777.5" y="260" width="100" height="30" as="geometry" />
        </mxCell>
        <mxCell id="hzZw_iUylQr1iloRfRJn-27" value="" style="edgeStyle=segmentEdgeStyle;endArrow=classic;html=1;rounded=0;strokeWidth=5;exitX=0.25;exitY=0;exitDx=0;exitDy=0;exitPerimeter=0;" parent="1" source="hzZw_iUylQr1iloRfRJn-2" target="hzZw_iUylQr1iloRfRJn-3" edge="1">
          <mxGeometry width="50" height="50" relative="1" as="geometry">
            <mxPoint x="482.5" y="570" as="sourcePoint" />
            <mxPoint x="282.5" y="320" as="targetPoint" />
            <Array as="points">
              <mxPoint x="882.5" y="320" />
            </Array>
          </mxGeometry>
        </mxCell>
        <mxCell id="hzZw_iUylQr1iloRfRJn-4" value="" style="sketch=0;points=[[0,0,0],[0.25,0,0],[0.5,0,0],[0.75,0,0],[1,0,0],[0,1,0],[0.25,1,0],[0.5,1,0],[0.75,1,0],[1,1,0],[0,0.25,0],[0,0.5,0],[0,0.75,0],[1,0.25,0],[1,0.5,0],[1,0.75,0]];outlineConnect=0;fontColor=#232F3E;gradientColor=#F54749;gradientDirection=north;fillColor=#C7131F;strokeColor=#ffffff;dashed=0;verticalLabelPosition=bottom;verticalAlign=top;align=center;html=1;fontSize=12;fontStyle=0;aspect=fixed;shape=mxgraph.aws4.resourceIcon;resIcon=mxgraph.aws4.key_management_service;" parent="1" vertex="1">
          <mxGeometry x="507.5" y="270" width="78" height="78" as="geometry" />
        </mxCell>
        <mxCell id="hzZw_iUylQr1iloRfRJn-28" value="&lt;font style=&quot;font-size: 11px;&quot;&gt;&lt;span style=&quot;&quot; data-slate-fragment=&quot;JTdCJTIyb2JqZWN0JTIyJTNBJTIyZG9jdW1lbnQlMjIlMkMlMjJkYXRhJTIyJTNBJTdCJTdEJTJDJTIybm9kZXMlMjIlM0ElNUIlN0IlMjJvYmplY3QlMjIlM0ElMjJibG9jayUyMiUyQyUyMnR5cGUlMjIlM0ElMjJwYXJhZ3JhcGglMjIlMkMlMjJpc1ZvaWQlMjIlM0FmYWxzZSUyQyUyMmRhdGElMjIlM0ElN0IlN0QlMkMlMjJub2RlcyUyMiUzQSU1QiU3QiUyMm9iamVjdCUyMiUzQSUyMnRleHQlMjIlMkMlMjJsZWF2ZXMlMjIlM0ElNUIlN0IlMjJvYmplY3QlMjIlM0ElMjJsZWFmJTIyJTJDJTIydGV4dCUyMiUzQSUyMnBvc3QlMjB0aGVpciUyMHNpZ25hdHVyZXMlMjB0byUyMHRoaXMlMjBidWNrZXQlMjIlMkMlMjJtYXJrcyUyMiUzQSU1QiU1RCUyQyUyMnNlbGVjdGlvbnMlMjIlM0ElNUIlNUQlN0QlNUQlMkMlMjJrZXklMjIlM0ElMjJhYWNjMzE5OWZiYWQ0MjY4ODkzYzk3YjBiODA0ZTc0MiUyMiU3RCU1RCUyQyUyMmtleSUyMiUzQSUyMmYwNThhZjRjZDU4NzQwNDQ4YmE3MWMwM2Q0MDAwNmY4JTIyJTdEJTVEJTJDJTIya2V5JTIyJTNBJTIyOGFlZTNhMzE4YTI4NGNmZGJmMzhkNGUzOWFkY2E0MWIlMjIlN0Q=&quot;&gt;S3bucketに署名した結果を保存する&lt;/span&gt;&lt;br style=&quot;font-size: 11px;&quot;&gt;&lt;/font&gt;" style="text;html=1;resizable=0;autosize=1;align=center;verticalAlign=middle;points=[];fillColor=#dae8fc;strokeColor=#6c8ebf;rounded=1;fontSize=11;strokeWidth=1;perimeterSpacing=0;" parent="1" vertex="1">
          <mxGeometry x="677.5" y="633" width="200" height="30" as="geometry" />
        </mxCell>
        <mxCell id="hzZw_iUylQr1iloRfRJn-30" value="" style="edgeStyle=orthogonalEdgeStyle;html=1;endArrow=block;elbow=vertical;startArrow=none;endFill=1;strokeColor=#545B64;rounded=0;strokeWidth=5;fontSize=11;exitX=1;exitY=0.5;exitDx=0;exitDy=0;exitPerimeter=0;entryX=0;entryY=0.5;entryDx=0;entryDy=0;entryPerimeter=0;" parent="1" source="hzZw_iUylQr1iloRfRJn-11" target="hzZw_iUylQr1iloRfRJn-2" edge="1">
          <mxGeometry width="100" relative="1" as="geometry">
            <mxPoint x="555.5" y="661.5699999999999" as="sourcePoint" />
            <mxPoint x="655.5" y="661.5699999999999" as="targetPoint" />
          </mxGeometry>
        </mxCell>
        <mxCell id="hzZw_iUylQr1iloRfRJn-33" value="&lt;font style=&quot;font-size: 14px;&quot;&gt;AWS Cloud&lt;/font&gt;" style="points=[[0,0],[0.25,0],[0.5,0],[0.75,0],[1,0],[1,0.25],[1,0.5],[1,0.75],[1,1],[0.75,1],[0.5,1],[0.25,1],[0,1],[0,0.75],[0,0.5],[0,0.25]];outlineConnect=0;gradientColor=none;html=1;whiteSpace=wrap;fontSize=12;fontStyle=0;container=1;pointerEvents=0;collapsible=0;recursiveResize=0;shape=mxgraph.aws4.group;grIcon=mxgraph.aws4.group_aws_cloud_alt;strokeColor=#232F3E;fillColor=none;verticalAlign=top;align=left;spacingLeft=30;fontColor=#232F3E;dashed=0;rounded=1;glass=0;sketch=0;strokeWidth=1;" parent="1" vertex="1">
          <mxGeometry x="470" y="210" width="180" height="590" as="geometry" />
        </mxCell>
        <mxCell id="hzZw_iUylQr1iloRfRJn-29" value="&lt;font style=&quot;font-size: 11px;&quot;&gt;&lt;span style=&quot;&quot; data-slate-fragment=&quot;JTdCJTIyb2JqZWN0JTIyJTNBJTIyZG9jdW1lbnQlMjIlMkMlMjJkYXRhJTIyJTNBJTdCJTdEJTJDJTIybm9kZXMlMjIlM0ElNUIlN0IlMjJvYmplY3QlMjIlM0ElMjJibG9jayUyMiUyQyUyMnR5cGUlMjIlM0ElMjJwYXJhZ3JhcGglMjIlMkMlMjJpc1ZvaWQlMjIlM0FmYWxzZSUyQyUyMmRhdGElMjIlM0ElN0IlN0QlMkMlMjJub2RlcyUyMiUzQSU1QiU3QiUyMm9iamVjdCUyMiUzQSUyMnRleHQlMjIlMkMlMjJsZWF2ZXMlMjIlM0ElNUIlN0IlMjJvYmplY3QlMjIlM0ElMjJsZWFmJTIyJTJDJTIydGV4dCUyMiUzQSUyMnBvc3QlMjB0aGVpciUyMHNpZ25hdHVyZXMlMjB0byUyMHRoaXMlMjBidWNrZXQlMjIlMkMlMjJtYXJrcyUyMiUzQSU1QiU1RCUyQyUyMnNlbGVjdGlvbnMlMjIlM0ElNUIlNUQlN0QlNUQlMkMlMjJrZXklMjIlM0ElMjJhYWNjMzE5OWZiYWQ0MjY4ODkzYzk3YjBiODA0ZTc0MiUyMiU3RCU1RCUyQyUyMmtleSUyMiUzQSUyMmYwNThhZjRjZDU4NzQwNDQ4YmE3MWMwM2Q0MDAwNmY4JTIyJTdEJTVEJTJDJTIya2V5JTIyJTNBJTIyOGFlZTNhMzE4YTI4NGNmZGJmMzhkNGUzOWFkY2E0MWIlMjIlN0Q=&quot;&gt;Store AWSのリソースであるKMSとS3の使用権限&lt;br&gt;のあるIAM User (Access Keyなど)の情報を&lt;br&gt;右のサーバーに保存しておきます。&lt;br&gt;&lt;/span&gt;&lt;/font&gt;" style="text;html=1;resizable=0;autosize=1;align=left;verticalAlign=middle;points=[];fillColor=#dae8fc;strokeColor=#6c8ebf;rounded=1;fontSize=11;strokeWidth=1;perimeterSpacing=0;" parent="1" vertex="1">
          <mxGeometry x="246.5" y="480" width="270" height="50" as="geometry" />
        </mxCell>
        <mxCell id="hzZw_iUylQr1iloRfRJn-39" value="&lt;font style=&quot;font-size: 24px;&quot;&gt;validatorを&lt;br&gt;稼働するサーバー&lt;br&gt;&lt;/font&gt;" style="text;html=1;resizable=0;autosize=1;align=center;verticalAlign=middle;points=[];fillColor=none;strokeColor=none;rounded=0;" parent="1" vertex="1">
          <mxGeometry x="940.5" y="464" width="220" height="70" as="geometry" />
        </mxCell>
      </root>
    </mxGraphModel>
  </diagram>
</mxfile>
